<svg xmlns="http://www.w3.org/2000/svg" width="768" height="1024" viewBox="0 0 768 1024">
  <rect width="768" height="1024" fill="#f2eee7"/>
  <path d="M60 820H708" stroke="#9d9184" stroke-width="5"/>
  <g stroke="#493f3c" stroke-width="5" stroke-linejoin="round">
    <ellipse cx="384" cy="220" rx="118" ry="120" fill="#b9a995"/>
    <path d="M350 329V360H418V329" fill="#b9a995"/>
    <path d="M292 355Q384 330 476 355L490 535Q438 558 384 558Q330 558 278 535Z" fill="#8d829f"/>
    <path d="M292 365Q252 374 242 420L266 515Q275 555 258 620" fill="none" stroke="#b9a995" stroke-width="38" stroke-linecap="round"/>
    <path d="M476 365Q516 374 526 420L502 515Q493 555 510 620" fill="none" stroke="#b9a995" stroke-width="38" stroke-linecap="round"/>
    <path d="M258 620Q252 634 264 646" fill="none" stroke="#b9a995" stroke-width="25" stroke-linecap="round"/>
    <path d="M510 620Q516 634 504 646" fill="none" stroke="#b9a995" stroke-width="25" stroke-linecap="round"/>
    <path d="M323 540Q315 650 322 778" fill="none" stroke="#61576a" stroke-width="70" stroke-linecap="round"/>
    <path d="M445 540Q453 650 446 778" fill="none" stroke="#61576a" stroke-width="70" stroke-linecap="round"/>
    <path d="M286 772Q322 764 360 780L352 813Q318 824 278 812Z" fill="#77717c"/>
    <path d="M482 772Q446 764 408 780L416 813Q450 824 490 812Z" fill="#77717c"/>
  </g>
  <g fill="#f2eee7" stroke="#493f3c" stroke-width="4">
    <circle cx="268" cy="475" r="11"/>
    <circle cx="500" cy="475" r="11"/>
    <circle cx="322" cy="650" r="11"/>
    <circle cx="446" cy="650" r="11"/>
  </g>
</svg>
