<svg xmlns="http://www.w3.org/2000/svg" width="896" height="1200" viewBox="0 0 896 1200">
  <defs>
    <filter id="feather-small" x="-20%" y="-20%" width="140%" height="140%">
      <feGaussianBlur stdDeviation="1.5"/>
    </filter>
    <filter id="feather-mouth" x="-20%" y="-20%" width="140%" height="140%">
      <feGaussianBlur stdDeviation="2"/>
    </filter>
  </defs>
  <rect width="896" height="1200" fill="#000000"/>
  <g fill="#ffffff" filter="url(#feather-small)">
    <path d="M362 210Q394 195 429 211L427 234Q394 222 365 236Z"/>
    <path d="M468 210Q501 194 534 211L532 234Q501 222 470 236Z"/>
    <path d="M358 246Q393 238 429 246L426 282Q420 293 393 295Q367 294 361 284Z"/>
    <path d="M468 246Q501 238 535 246L532 282Q526 293 501 295Q476 294 471 284Z"/>
  </g>
  <path d="M405 311Q448 302 492 312L490 345Q481 359 448 361Q416 358 406 345Z" fill="#ffffff" filter="url(#feather-mouth)"/>
</svg>
